<?xml version="1.0" encoding="utf-8"?>
<!-- Generator: Adobe Illustrator 24.0.0, SVG Export Plug-In . SVG Version: 6.00 Build 0)  -->
<svg version="1.1"
	 id="Layer_1" text-rendering="geometricPrecision" image-rendering="optimizeQuality" shape-rendering="geometricPrecision" xmlns:xodm="http://www.corel.com/coreldraw/odm/2003"
	 xmlns="http://www.w3.org/2000/svg" xmlns:xlink="http://www.w3.org/1999/xlink" x="0px" y="0px" viewBox="0 0 595.3 613"
	 style="enable-background:new 0 0 595.3 613;" xml:space="preserve">
<style type="text/css">
	.st0{fill:#F5F5DC;}
</style>
<g>
	<path class="st0" d="M271.7,307.5l-17.9,71.9c22.1,5.5,90.4,27.4,100.5-13.1h0C364.8,324,293.8,313.1,271.7,307.5z"/>
	<path class="st0" d="M296.1,209.4l-16.3,65.2c18.4,4.6,75.3,23.3,84.5-13.6h0C374,222.6,314.6,214,296.1,209.4z"/>
	<path class="st0" d="M586.4,376.1c39.8-159.5-57.3-321-216.8-360.8C210.2-24.5,48.7,72.6,8.9,232.1
		c-39.8,159.5,57.3,321,216.7,360.7C385.1,632.6,546.6,535.5,586.4,376.1L586.4,376.1L586.4,376.1z M428.9,261.6L428.9,261.6
		c-4.3,29-20.4,43-41.7,48c29.3,15.3,44.2,38.7,30,79.2c-17.6,50.4-59.5,54.6-115.2,44.1l-13.5,54.2l-32.7-8.1l13.3-53.4
		c-8.5-2.1-17.1-4.3-26-6.8l-13.4,53.7l-32.6-8.1l13.5-54.3c-7.6-2-15.4-4-23.3-6l-42.5-10.6l16.2-37.4c0,0,24.1,6.4,23.7,5.9
		c9.2,2.3,13.4-3.7,15-7.8l21.4-85.6c1.2,0.3,2.4,0.6,3.5,0.9c-1.3-0.5-2.5-0.9-3.4-1.1l15.2-61.1c0.4-6.9-2-15.7-15.2-19
		c0.5-0.3-23.7-5.9-23.7-5.9l8.7-34.9l45,11.2l0,0.2c6.8,1.7,13.8,3.3,20.9,4.9l13.4-53.6l32.6,8.1l-13.1,52.6
		c8.8,2,17.6,4,26.2,6.2l13-52.2l32.7,8.1l-13.4,53.7C404.7,200.7,434.8,222,428.9,261.6L428.9,261.6z"/>
</g>
</svg>
