<?xml version="1.0" standalone="no"?>
<!DOCTYPE svg PUBLIC "-//W3C//DTD SVG 1.1//EN" "http://www.w3.org/Graphics/SVG/1.1/DTD/svg11.dtd" >
<svg xmlns="http://www.w3.org/2000/svg" xmlns:xlink="http://www.w3.org/1999/xlink" version="1.1">
<metadata>
Created by FontForge 20170731 at Thu Feb 20 21:08:34 2014
 By Aleksey,,,
HuseyinAlperTUNA
</metadata>
<defs>
<font id="PixelMecha" horiz-adv-x="448" >
  <font-face 
    font-family="PixelMecha"
    font-weight="500"
    font-stretch="normal"
    units-per-em="1024"
    panose-1="2 0 6 3 0 0 0 0 0 0"
    ascent="768"
    descent="-256"
    x-height="512"
    cap-height="704"
    bbox="0 -128 576 768"
    underline-thickness="51"
    underline-position="-203"
    unicode-range="U+0020-3000"
  />
<missing-glyph horiz-adv-x="374" 
d="M34 0v682h272v-682h-272zM68 34h204v614h-204v-614z" />
    <glyph glyph-name=".notdef" horiz-adv-x="374" 
d="M34 0v682h272v-682h-272zM68 34h204v614h-204v-614z" />
    <glyph glyph-name=".null" horiz-adv-x="0" 
 />
    <glyph glyph-name="nonmarkingreturn" horiz-adv-x="341" 
 />
    <glyph glyph-name="space" unicode=" " horiz-adv-x="320" 
 />
    <glyph glyph-name="exclam" unicode="!" horiz-adv-x="192" 
d="M0 0v64h64v-64h-64zM0 192v64v64v64v64v64v64v64v64h64v-64v-64v-64v-64v-64v-64v-64v-64h-64z" />
    <glyph glyph-name="quotedbl" unicode="&#x22;" horiz-adv-x="320" 
d="M128 512v64v64v64h64v-64v-64v-64h-64zM0 512v64v64v64h64v-64v-64v-64h-64z" />
    <glyph glyph-name="numbersign" unicode="#" horiz-adv-x="512" 
d="M256 0v64v64h-64h-64v-64v-64h-64v64v64h-64v64h64v64v64v64v64h-64v64h64v64v64v64h64v-64v-64v-64h64h64v64v64v64h64v-64v-64v-64h64v-64h-64v-64v-64v-64v-64h64v-64h-64v-64v-64h-64zM192 192h64v64v64v64v64h-64h-64v-64v-64v-64v-64h64z" />
    <glyph glyph-name="dollar" unicode="$" 
d="M128 0v64h-64h-64v64h64h64h64h64v64v64v64h-64h-64h-64h-64v64v64v64v64v64h64h64v64h64v-64h64h64v-64h-64h-64h-64h-64v-64v-64v-64h64h64h64h64v-64v-64v-64v-64v-64h-64h-64v-64h-64z" />
    <glyph glyph-name="percent" unicode="%" 
d="M0 64v64v64h64v-64v-64h-64zM256 64h-64v64v64h64h64v-64v-64h-64zM64 192v64v64h64v-64v-64h-64zM128 320v64v64h64v-64v-64h-64zM192 448v64v64h64v-64v-64h-64zM256 576v64v64h64v-64v-64h-64zM64 576h-64v64v64h64h64v-64v-64h-64z" />
    <glyph glyph-name="ampersand" unicode="&#x26;" horiz-adv-x="512" 
d="M256 0h-64h-64h-64h-64v64v64v64v64h64v-64v-64v-64h64h64h64v64v64v64h-64v64h64h64v-64v-64h64v-64h-64v-64v-64h-64zM64 256v64h64v-64h-64zM192 320h-64v64h64v-64zM192 384v64h64v-64h-64zM128 384h-64v64h64v-64zM256 448v64v64v64h-64h-64h-64v-64v-64v-64h-64v64
v64v64v64h64h64h64h64h64v-64v-64v-64v-64h-64z" />
    <glyph glyph-name="quotesingle" unicode="'" horiz-adv-x="192" 
d="M0 576v64v64h64v-64v-64h-64z" />
    <glyph glyph-name="parenleft" unicode="(" horiz-adv-x="256" 
d="M64 0v64h64v-64h-64zM64 64h-64v64v64v64v64v64v64v64v64v64h64v-64v-64v-64v-64v-64v-64v-64v-64v-64zM64 640v64h64v-64h-64z" />
    <glyph glyph-name="parenright" unicode=")" horiz-adv-x="256" 
d="M0 0v64h64v-64h-64zM64 64v64v64v64v64v64v64v64v64v64h64v-64v-64v-64v-64v-64v-64v-64v-64v-64h-64zM64 640h-64v64h64v-64z" />
    <glyph glyph-name="asterisk" unicode="*" horiz-adv-x="320" 
d="M128 512v64h64v-64h-64zM0 512v64h64v-64h-64zM128 576h-64v64h64v-64zM128 640v64h64v-64h-64zM64 640h-64v64h64v-64z" />
    <glyph glyph-name="plus" unicode="+" horiz-adv-x="576" 
d="M192 0v64v64v64v64h-64h-64h-64v64h64h64h64v64v64v64h64v-64v-64v-64h64h64h64v-64h-64h-64h-64v-64v-64v-64v-64h-64z" />
    <glyph glyph-name="comma" unicode="," horiz-adv-x="192" 
d="M0 -128v64v64v64h64v-64v-64v-64h-64z" />
    <glyph glyph-name="hyphen" unicode="-" 
d="M256 320h64v-64h-64h-64h-64h-64h-64v64h64h64h64h64z" />
    <glyph glyph-name="period" unicode="." horiz-adv-x="192" 
d="M0 0v64h64v-64h-64z" />
    <glyph glyph-name="slash" unicode="/" 
d="M0 64v64v64h64v-64v-64h-64zM64 192v64v64h64v-64v-64h-64zM128 320v64v64h64v-64v-64h-64zM192 448v64v64h64v-64v-64h-64zM256 576v64v64h64v-64v-64h-64z" />
    <glyph glyph-name="zero" unicode="0" 
d="M256 0h-64h-64h-64h-64v64v64v64v64v64v64v64v64v64v64v64h64h64h64h64h64v-64v-64v-64v-64v-64v-64v-64v-64v-64v-64v-64h-64zM192 64h64v64v64v64h-64v64h-64v64h-64v-64v-64v-64v-64v-64h64h64zM256 320v64v64v64v64v64h-64h-64h-64v-64v-64v-64h64v-64h64v-64h64z
" />
    <glyph glyph-name="one" unicode="1" horiz-adv-x="256" 
d="M64 0v64v64v64v64v64v64v64v64v64v64h-64v64h64h64v-64v-64v-64v-64v-64v-64v-64v-64v-64v-64v-64h-64z" />
    <glyph glyph-name="two" unicode="2" 
d="M256 64h64v-64h-64h-64h-64h-64h-64v64v64v64v64v64h64v-64v-64v-64v-64h64h64h64zM256 320h-64h-64h-64v64h64h64h64v64v64v64v64h-64h-64h-64h-64v64h64h64h64h64h64v-64v-64v-64v-64v-64v-64h-64z" />
    <glyph glyph-name="three" unicode="3" 
d="M256 0h-64h-64h-64h-64v64h64h64h64h64v64v64v64v64h-64h-64v64h64h64v64v64v64v64h-64h-64h-64h-64v64h64h64h64h64h64v-64v-64v-64v-64v-64v-64v-64v-64v-64v-64v-64h-64z" />
    <glyph glyph-name="four" unicode="4" 
d="M256 0v64v64v64v64v64h-64h-64h-64h-64v64v64v64v64v64v64h64v-64v-64v-64v-64v-64h64h64h64v64v64v64v64v64h64v-64v-64v-64v-64v-64v-64v-64v-64v-64v-64v-64h-64z" />
    <glyph glyph-name="five" unicode="5" 
d="M256 0h-64h-64h-64h-64v64h64h64h64h64v64v64v64v64h64v-64v-64v-64v-64v-64h-64zM256 320h-64h-64h-64h-64v64v64v64v64v64v64h64h64h64h64h64v-64h-64h-64h-64h-64v-64v-64v-64v-64h64h64h64v-64z" />
    <glyph glyph-name="six" unicode="6" 
d="M256 0h-64h-64h-64h-64v64v64v64v64v64v64v64v64v64v64v64h64h64h64h64h64v-64h-64h-64h-64h-64v-64v-64v-64v-64h64h64h64h64v-64v-64v-64v-64v-64v-64h-64zM192 64h64v64v64v64v64h-64h-64h-64v-64v-64v-64v-64h64h64z" />
    <glyph glyph-name="seven" unicode="7" 
d="M128 0v64v64v64v64v64h64v-64v-64v-64v-64v-64h-64zM192 320v64h64v-64h-64zM256 384v64v64v64v64h-64h-64h-64h-64v64h64h64h64h64h64v-64v-64v-64v-64v-64h-64z" />
    <glyph glyph-name="eight" unicode="8" 
d="M256 0h-64h-64h-64h-64v64v64v64v64v64v64v64v64v64v64v64h64h64h64h64h64v-64v-64v-64v-64v-64v-64v-64v-64v-64v-64v-64h-64zM192 64h64v64v64v64v64h-64h-64h-64v-64v-64v-64v-64h64h64zM192 384h64v64v64v64v64h-64h-64h-64v-64v-64v-64v-64h64h64z" />
    <glyph glyph-name="nine" unicode="9" 
d="M256 0h-64h-64h-64h-64v64h64h64h64h64v64v64v64v64h-64h-64h-64h-64v64v64v64v64v64v64h64h64h64h64h64v-64v-64v-64v-64v-64v-64v-64v-64v-64v-64v-64h-64zM192 384h64v64v64v64v64h-64h-64h-64v-64v-64v-64v-64h64h64z" />
    <glyph glyph-name="colon" unicode=":" horiz-adv-x="192" 
d="M0 0v64h64v-64h-64zM0 320v64h64v-64h-64z" />
    <glyph glyph-name="semicolon" unicode=";" horiz-adv-x="192" 
d="M0 -128v64v64v64h64v-64v-64v-64h-64zM0 256v64h64v-64h-64z" />
    <glyph glyph-name="less" unicode="&#x3c;" horiz-adv-x="384" 
d="M192 0v64h64v-64h-64zM192 64h-64v64h64v-64zM128 128h-64v64h64v-64zM64 192h-64v64h64v-64zM64 256v64h64v-64h-64zM128 320v64h64v-64h-64zM192 384v64h64v-64h-64z" />
    <glyph glyph-name="equal" unicode="=" 
d="M256 256h64v-64h-64h-64h-64h-64h-64v64h64h64h64h64zM256 384h64v-64h-64h-64h-64h-64h-64v64h64h64h64h64z" />
    <glyph glyph-name="greater" unicode="&#x3e;" horiz-adv-x="384" 
d="M0 0v64h64v-64h-64zM64 64v64h64v-64h-64zM128 128v64h64v-64h-64zM192 192v64h64v-64h-64zM192 256h-64v64h64v-64zM128 320h-64v64h64v-64zM64 384h-64v64h64v-64z" />
    <glyph glyph-name="question" unicode="?" 
d="M128 0v64h64v-64h-64zM128 192v64v64h64v-64v-64h-64zM0 576v64v64h64h64h64h64h64v-64v-64v-64v-64v-64h-64v-64h-64v64h64v64v64v64v64h-64h-64h-64v-64h-64z" />
    <glyph glyph-name="A" unicode="A" 
d="M256 0v64v64v64v64v64h-64h-64h-64v-64v-64v-64v-64v-64h-64v64v64v64v64v64v64v64v64v64v64v64h64h64h64h64h64v-64v-64v-64v-64v-64v-64v-64v-64v-64v-64v-64h-64zM192 384h64v64v64v64v64h-64h-64h-64v-64v-64v-64v-64h64h64z" />
    <glyph glyph-name="B" unicode="B" 
d="M256 0h-64h-64h-64h-64v64v64v64v64v64v64v64v64v64v64v64h64h64h64h64h64v-64v-64v-64v-64v-64h-64v64v64v64v64h-64h-64h-64v-64v-64v-64v-64h64h64h64v-64h-64h-64h-64v-64v-64v-64v-64h64h64h64v64v64v64v64h64v-64v-64v-64v-64v-64h-64z" />
    <glyph glyph-name="C" unicode="C" 
d="M256 64h64v-64h-64h-64h-64h-64h-64v64v64v64v64v64v64v64v64v64v64v64h64h64h64h64h64v-64h-64h-64h-64h-64v-64v-64v-64v-64v-64v-64v-64v-64v-64h64h64h64z" />
    <glyph glyph-name="D" unicode="D" 
d="M192 64h64v64v64v64v64v64v64v64v64v64h-64h-64h-64v-64v-64v-64v-64v-64v-64v-64v-64v-64h64h64zM192 0h-64h-64h-64v64v64v64v64v64v64v64v64v64v64v64h64h64h64h64v-64h64v-64v-64v-64v-64v-64v-64v-64v-64v-64h-64v-64h-64z" />
    <glyph glyph-name="E" unicode="E" 
d="M256 64h64v-64h-64h-64h-64h-64h-64v64v64v64v64v64v64v64v64v64v64v64h64h64h64h64h64v-64h-64h-64h-64h-64v-64v-64v-64v-64h64h64h64v-64h-64h-64h-64v-64v-64v-64v-64h64h64h64z" />
    <glyph glyph-name="F" unicode="F" 
d="M0 0v64v64v64v64v64v64v64v64v64v64v64h64h64h64h64h64v-64h-64h-64h-64h-64v-64v-64v-64v-64h64h64h64v-64h-64h-64h-64v-64v-64v-64v-64v-64h-64z" />
    <glyph glyph-name="G" unicode="G" 
d="M256 0h-64h-64h-64h-64v64v64v64v64v64v64v64v64v64v64v64h64h64h64h64h64v-64h-64h-64h-64h-64v-64v-64v-64v-64v-64v-64v-64v-64v-64h64h64h64v64v64v64v64h-64v64h64h64v-64v-64v-64v-64v-64v-64h-64z" />
    <glyph glyph-name="H" unicode="H" 
d="M256 0v64v64v64v64v64h-64h-64h-64v-64v-64v-64v-64v-64h-64v64v64v64v64v64v64v64v64v64v64v64h64v-64v-64v-64v-64v-64h64h64h64v64v64v64v64v64h64v-64v-64v-64v-64v-64v-64v-64v-64v-64v-64v-64h-64z" />
    <glyph glyph-name="I" unicode="I" horiz-adv-x="192" 
d="M0 0v64v64v64v64v64v64v64v64v64v64v64h64v-64v-64v-64v-64v-64v-64v-64v-64v-64v-64v-64h-64z" />
    <glyph glyph-name="J" unicode="J" 
d="M256 0h-64h-64h-64h-64v64h64h64h64h64v64v64v64v64v64v64v64v64v64h-64h-64v64h64h64h64v-64v-64v-64v-64v-64v-64v-64v-64v-64v-64v-64h-64z" />
    <glyph glyph-name="K" unicode="K" 
d="M256 0v64v64v64v64v64h64v-64v-64v-64v-64v-64h-64zM0 0v64v64v64v64v64v64v64v64v64v64v64h64v-64v-64v-64v-64v-64h64h64h64v-64h-64h-64h-64v-64v-64v-64v-64v-64h-64zM256 384v64v64v64v64v64h64v-64v-64v-64v-64v-64h-64z" />
    <glyph glyph-name="L" unicode="L" 
d="M256 64h64v-64h-64h-64h-64h-64h-64v64v64v64v64v64v64v64v64v64v64v64h64v-64v-64v-64v-64v-64v-64v-64v-64v-64v-64h64h64h64z" />
    <glyph glyph-name="M" unicode="M" horiz-adv-x="576" 
d="M384 0v64v64v64v64v64v64v64v64v64v64h-64h-64v-64v-64v-64v-64h-64v64v64v64v64h-64h-64v-64v-64v-64v-64v-64v-64v-64v-64v-64v-64h-64v64v64v64v64v64v64v64v64v64v64v64h64h64h64h64h64h64h64v-64v-64v-64v-64v-64v-64v-64v-64v-64v-64v-64h-64z" />
    <glyph glyph-name="N" unicode="N" 
d="M256 0v64v64v64v64v64v64v64v64v64v64h-64h-64h-64v-64v-64v-64v-64v-64v-64v-64v-64v-64v-64h-64v64v64v64v64v64v64v64v64v64v64v64h64h64h64h64h64v-64v-64v-64v-64v-64v-64v-64v-64v-64v-64v-64h-64z" />
    <glyph glyph-name="O" unicode="O" 
d="M256 0h-64h-64h-64h-64v64v64v64v64v64v64v64v64v64v64v64h64h64h64h64h64v-64v-64v-64v-64v-64v-64v-64v-64v-64v-64v-64h-64zM192 64h64v64v64v64v64v64v64v64v64v64h-64h-64h-64v-64v-64v-64v-64v-64v-64v-64v-64v-64h64h64z" />
    <glyph glyph-name="P" unicode="P" 
d="M0 0v64v64v64v64v64v64v64v64v64v64v64h64h64h64h64h64v-64v-64v-64v-64v-64v-64h-64h-64h-64h-64v-64v-64v-64v-64v-64h-64zM192 384h64v64v64v64v64h-64h-64h-64v-64v-64v-64v-64h64h64z" />
    <glyph glyph-name="Q" unicode="Q" 
d="M192 -128v64h-64v64h-64h-64v64v64v64v64v64v64v64v64v64v64v64h64h64h64h64h64v-64v-64v-64v-64v-64v-64v-64v-64v-64v-64v-64h-64v-64v-64h-64zM256 64v64v64v64v64v64v64v64v64v64h-64h-64h-64v-64v-64v-64v-64v-64v-64v-64v-64v-64h64v64h64v-64h64z" />
    <glyph glyph-name="R" unicode="R" 
d="M256 0v64v64v64v64v64h64v-64v-64v-64v-64v-64h-64zM0 0v64v64v64v64v64v64v64v64v64v64v64h64h64h64h64h64v-64v-64v-64v-64v-64h-64v64v64v64v64h-64h-64h-64v-64v-64v-64v-64h64h64h64v-64h-64h-64h-64v-64v-64v-64v-64v-64h-64z" />
    <glyph glyph-name="S" unicode="S" 
d="M256 0h-64h-64h-64h-64v64h64h64h64h64v64v64v64v64h-64h-64h-64h-64v64v64v64v64v64v64h64h64h64h64h64v-64h-64h-64h-64h-64v-64v-64v-64v-64h64h64h64h64v-64v-64v-64v-64v-64v-64h-64z" />
    <glyph glyph-name="T" unicode="T" 
d="M128 0v64v64v64v64v64v64v64v64v64v64h-64h-64v64h64h64h64h64h64v-64h-64h-64v-64v-64v-64v-64v-64v-64v-64v-64v-64v-64h-64z" />
    <glyph glyph-name="U" unicode="U" 
d="M256 0h-64h-64h-64h-64v64v64v64v64v64v64v64v64v64v64v64h64v-64v-64v-64v-64v-64v-64v-64v-64v-64v-64h64h64h64v64v64v64v64v64v64v64v64v64v64h64v-64v-64v-64v-64v-64v-64v-64v-64v-64v-64v-64h-64z" />
    <glyph glyph-name="V" unicode="V" 
d="M128 0v64h64v-64h-64zM192 64v64h64v-64h-64zM128 64h-64v64h64v-64zM256 128v64v64v64v64v64v64v64v64v64h64v-64v-64v-64v-64v-64v-64v-64v-64v-64h-64zM64 128h-64v64v64v64v64v64v64v64v64v64h64v-64v-64v-64v-64v-64v-64v-64v-64v-64z" />
    <glyph glyph-name="W" unicode="W" horiz-adv-x="576" 
d="M384 0h-64h-64h-64h-64h-64h-64v64v64v64v64v64v64v64v64v64v64v64h64v-64v-64v-64v-64v-64v-64v-64v-64v-64v-64h64h64v64v64v64v64h64v-64v-64v-64v-64h64h64v64v64v64v64v64v64v64v64v64v64h64v-64v-64v-64v-64v-64v-64v-64v-64v-64v-64v-64h-64z" />
    <glyph glyph-name="X" unicode="X" 
d="M256 0v64v64v64v64h64v-64v-64v-64v-64h-64zM0 0v64v64v64v64h64v-64v-64v-64v-64h-64zM256 256h-64v64h64v-64zM64 256v64h64v-64h-64zM192 320h-64v64h64v-64zM192 384v64h64v-64h-64zM128 384h-64v64h64v-64zM256 448v64v64v64v64h64v-64v-64v-64v-64h-64zM64 448h-64
v64v64v64v64h64v-64v-64v-64v-64z" />
    <glyph glyph-name="Y" unicode="Y" 
d="M128 0v64v64v64v64v64h-64v64h64h64h64v-64h-64v-64v-64v-64v-64v-64h-64zM256 384v64v64v64v64v64h64v-64v-64v-64v-64v-64h-64zM64 384h-64v64v64v64v64v64h64v-64v-64v-64v-64v-64z" />
    <glyph glyph-name="Z" unicode="Z" 
d="M256 64h64v-64h-64h-64h-64h-64h-64v64v64v64v64h64v-64v-64v-64h64h64h64zM64 256v64h64v-64h-64zM128 320v64h64v-64h-64zM192 384v64h64v-64h-64zM256 448v64v64v64h-64h-64h-64h-64v64h64h64h64h64h64v-64v-64v-64v-64h-64z" />
    <glyph glyph-name="bracketleft" unicode="[" horiz-adv-x="256" 
d="M64 0h-64v64v64v64v64v64v64v64v64v64v64v64h64h64v-64h-64v-64v-64v-64v-64v-64v-64v-64v-64v-64h64v-64h-64z" />
    <glyph glyph-name="backslash" unicode="\" 
d="M256 64v64v64h64v-64v-64h-64zM256 192h-64v64v64h64v-64v-64zM192 320h-64v64v64h64v-64v-64zM128 448h-64v64v64h64v-64v-64zM64 576h-64v64v64h64v-64v-64z" />
    <glyph glyph-name="bracketright" unicode="]" horiz-adv-x="256" 
d="M64 0h-64v64h64v64v64v64v64v64v64v64v64v64h-64v64h64h64v-64v-64v-64v-64v-64v-64v-64v-64v-64v-64v-64h-64z" />
    <glyph glyph-name="asciicircum" unicode="^" horiz-adv-x="320" 
d="M128 512v64h64v-64h-64zM0 512v64h64v-64h-64zM128 576h-64v64h64v-64z" />
    <glyph glyph-name="underscore" unicode="_" 
d="M256 -64h64v-64h-64h-64h-64h-64h-64v64h64h64h64h64z" />
    <glyph glyph-name="grave" unicode="`" horiz-adv-x="256" 
d="M64 576v64h64v-64h-64zM64 640h-64v64h64v-64z" />
    <glyph glyph-name="a" unicode="a" 
d="M256 0h-64h-64h-64h-64v64v64v64v64v64h64h64h64h64v64v64h-64h-64h-64h-64v64h64h64h64h64h64v-64v-64v-64v-64v-64v-64v-64v-64h-64zM192 64h64v64v64v64h-64h-64h-64v-64v-64v-64h64h64z" />
    <glyph glyph-name="b" unicode="b" 
d="M256 0h-64h-64h-64h-64v64v64v64v64v64v64v64v64v64v64v64h64v-64v-64v-64h64h64h64h64v-64v-64v-64v-64v-64v-64v-64v-64h-64zM192 64h64v64v64v64v64v64v64h-64h-64h-64v-64v-64v-64v-64v-64v-64h64h64z" />
    <glyph glyph-name="c" unicode="c" 
d="M256 64h64v-64h-64h-64h-64h-64h-64v64v64v64v64v64v64v64v64h64h64h64h64h64v-64h-64h-64h-64h-64v-64v-64v-64v-64v-64v-64h64h64h64z" />
    <glyph glyph-name="d" unicode="d" 
d="M256 0h-64h-64h-64h-64v64v64v64v64v64v64v64v64h64h64h64h64v64v64v64h64v-64v-64v-64v-64v-64v-64v-64v-64v-64v-64v-64h-64zM192 64h64v64v64v64v64v64v64h-64h-64h-64v-64v-64v-64v-64v-64v-64h64h64z" />
    <glyph glyph-name="e" unicode="e" 
d="M256 64h64v-64h-64h-64h-64h-64h-64v64v64v64v64v64v64v64v64h64h64h64h64h64v-64v-64v-64v-64v-64h-64h-64h-64h-64v-64v-64h64h64h64zM192 256h64v64v64v64h-64h-64h-64v-64v-64v-64h64h64z" />
    <glyph glyph-name="f" unicode="f" 
d="M128 0v64v64v64v64v64v64v64h-64h-64v64h64h64v64v64v64h64h64h64v-64h-64h-64v-64v-64h64h64v-64h-64h-64v-64v-64v-64v-64v-64v-64v-64h-64z" />
    <glyph glyph-name="g" unicode="g" 
d="M256 -128h-64h-64h-64h-64v64h64h64h64h64v64h-64h-64h-64h-64v64v64v64v64v64v64v64v64h64h64h64h64h64v-64v-64v-64v-64v-64v-64v-64v-64v-64v-64h-64zM192 64h64v64v64v64v64v64v64h-64h-64h-64v-64v-64v-64v-64v-64v-64h64h64z" />
    <glyph glyph-name="h" unicode="h" 
d="M256 0v64v64v64v64v64v64v64h-64h-64h-64v-64v-64v-64v-64v-64v-64v-64h-64v64v64v64v64v64v64v64v64v64v64v64h64v-64v-64v-64h64h64h64h64v-64v-64v-64v-64v-64v-64v-64v-64h-64z" />
    <glyph glyph-name="i" unicode="i" horiz-adv-x="192" 
d="M0 0v64v64v64v64v64v64v64v64h64v-64v-64v-64v-64v-64v-64v-64v-64h-64zM0 640v64h64v-64h-64z" />
    <glyph glyph-name="j" unicode="j" horiz-adv-x="256" 
d="M64 640v64h64v-64h-64zM64 -128h-64v64h64v64v64v64v64v64v64v64v64v64h64v-64v-64v-64v-64v-64v-64v-64v-64v-64v-64h-64z" />
    <glyph glyph-name="k" unicode="k" 
d="M256 0v64v64v64v64h64v-64v-64v-64v-64h-64zM0 0v64v64v64v64v64v64v64v64v64v64v64h64v-64v-64v-64v-64v-64v-64h64h64h64v-64h-64h-64h-64v-64v-64v-64v-64h-64zM256 320v64v64v64h64v-64v-64v-64h-64z" />
    <glyph glyph-name="l" unicode="l" horiz-adv-x="256" 
d="M64 0h-64v64v64v64v64v64v64v64v64v64v64v64h64v-64v-64v-64v-64v-64v-64v-64v-64v-64v-64h64v-64h-64z" />
    <glyph glyph-name="m" unicode="m" horiz-adv-x="576" 
d="M384 0v64v64v64v64v64v64v64h-64h-64v-64v-64v-64v-64v-64v-64v-64h-64v64v64v64v64v64v64v64h-64h-64v-64v-64v-64v-64v-64v-64v-64h-64v64v64v64v64v64v64v64v64h64h64h64h64h64h64h64v-64v-64v-64v-64v-64v-64v-64v-64h-64z" />
    <glyph glyph-name="n" unicode="n" 
d="M256 0v64v64v64v64v64v64v64h-64h-64h-64v-64v-64v-64v-64v-64v-64v-64h-64v64v64v64v64v64v64v64v64h64h64h64h64h64v-64v-64v-64v-64v-64v-64v-64v-64h-64z" />
    <glyph glyph-name="o" unicode="o" 
d="M256 0h-64h-64h-64h-64v64v64v64v64v64v64v64v64h64h64h64h64h64v-64v-64v-64v-64v-64v-64v-64v-64h-64zM192 64h64v64v64v64v64v64v64h-64h-64h-64v-64v-64v-64v-64v-64v-64h64h64z" />
    <glyph glyph-name="p" unicode="p" 
d="M0 -128v64v64v64v64v64v64v64v64v64v64h64h64h64h64h64v-64v-64v-64v-64v-64v-64v-64v-64h-64h-64h-64h-64v-64v-64h-64zM192 64h64v64v64v64v64v64v64h-64h-64h-64v-64v-64v-64v-64v-64v-64h64h64z" />
    <glyph glyph-name="q" unicode="q" 
d="M256 -128v64v64h-64h-64h-64h-64v64v64v64v64v64v64v64v64h64h64h64h64h64v-64v-64v-64v-64v-64v-64v-64v-64v-64v-64h-64zM192 64h64v64v64v64v64v64v64h-64h-64h-64v-64v-64v-64v-64v-64v-64h64h64z" />
    <glyph glyph-name="r" unicode="r" 
d="M0 0v64v64v64v64v64v64v64v64h64h64h64h64h64v-64h-64h-64h-64h-64v-64v-64v-64v-64v-64v-64v-64h-64z" />
    <glyph glyph-name="s" unicode="s" 
d="M256 0h-64h-64h-64h-64v64h64h64h64h64v64v64v64h-64h-64h-64h-64v64v64v64v64h64h64h64h64h64v-64h-64h-64h-64h-64v-64v-64h64h64h64h64v-64v-64v-64v-64v-64h-64z" />
    <glyph glyph-name="t" unicode="t" 
d="M256 64h64v-64h-64h-64h-64v64v64v64v64v64v64v64h-64h-64v64h64h64v64v64v64h64v-64v-64v-64h64h64v-64h-64h-64v-64v-64v-64v-64v-64v-64h64z" />
    <glyph glyph-name="u" unicode="u" 
d="M256 0h-64h-64h-64h-64v64v64v64v64v64v64v64v64h64v-64v-64v-64v-64v-64v-64v-64h64h64h64v64v64v64v64v64v64v64h64v-64v-64v-64v-64v-64v-64v-64v-64h-64z" />
    <glyph glyph-name="v" unicode="v" 
d="M128 0v64h64v-64h-64zM192 64v64h64v-64h-64zM128 64h-64v64h64v-64zM256 128v64v64v64v64v64v64h64v-64v-64v-64v-64v-64v-64h-64zM64 128h-64v64v64v64v64v64v64h64v-64v-64v-64v-64v-64v-64z" />
    <glyph glyph-name="w" unicode="w" horiz-adv-x="576" 
d="M384 0h-64h-64h-64h-64h-64h-64v64v64v64v64v64v64v64v64h64v-64v-64v-64v-64v-64v-64v-64h64h64v64v64v64v64v64v64v64h64v-64v-64v-64v-64v-64v-64v-64h64h64v64v64v64v64v64v64v64h64v-64v-64v-64v-64v-64v-64v-64v-64h-64z" />
    <glyph glyph-name="x" unicode="x" 
d="M256 0v64v64v64h64v-64v-64v-64h-64zM0 0v64v64v64h64v-64v-64v-64h-64zM256 192h-64v64h64v-64zM64 192v64h64v-64h-64zM192 256h-64v64h64v-64zM192 320v64h64v-64h-64zM128 320h-64v64h64v-64zM256 384v64v64h64v-64v-64h-64zM64 384h-64v64v64h64v-64v-64z" />
    <glyph glyph-name="y" unicode="y" 
d="M256 -128h-64h-64h-64h-64v64h64h64h64h64v64h-64h-64h-64h-64v64v64v64v64v64v64v64v64h64v-64v-64v-64v-64v-64v-64v-64h64h64h64v64v64v64v64v64v64v64h64v-64v-64v-64v-64v-64v-64v-64v-64v-64v-64h-64z" />
    <glyph glyph-name="z" unicode="z" 
d="M256 64h64v-64h-64h-64h-64h-64h-64v64v64v64h64v-64v-64h64h64h64zM64 192v64h64v-64h-64zM128 256v64h64v-64h-64zM192 320v64h64v-64h-64zM256 384v64h-64h-64h-64h-64v64h64h64h64h64h64v-64v-64h-64z" />
    <glyph glyph-name="braceleft" unicode="{" horiz-adv-x="320" 
d="M128 0h-64v64v64v64v64v64h-64v64h64v64v64v64v64v64h64h64v-64h-64v-64v-64v-64v-64v-64v-64v-64v-64v-64h64v-64h-64z" />
    <glyph glyph-name="bar" unicode="|" horiz-adv-x="192" 
d="M0 -128v64v64v64v64v64v64v64v64v64v64v64v64v64v64h64v-64v-64v-64v-64v-64v-64v-64v-64v-64v-64v-64v-64v-64v-64h-64z" />
    <glyph glyph-name="braceright" unicode="}" horiz-adv-x="320" 
d="M64 0h-64v64h64v64v64v64v64v64v64v64v64v64h-64v64h64h64v-64v-64v-64v-64v-64h64v-64h-64v-64v-64v-64v-64v-64h-64z" />
    <glyph glyph-name="uni00A0" unicode="&#xa0;" horiz-adv-x="320" 
 />
    <glyph glyph-name="cent" unicode="&#xa2;" 
d="M128 0v64h-64h-64v64v64v64v64v64v64h64h64v64h64v-64h64h64v-64h-64h-64h-64h-64v-64v-64v-64v-64h64h64h64h64v-64h-64h-64v-64h-64z" />
    <glyph glyph-name="sterling" unicode="&#xa3;" horiz-adv-x="512" 
d="M256 512v64h-64h-64v-64v-64v-64v-64h64h64v-64h-64h-64v-64v-64h64h64h64v64h64v-64v-64h-64h-64h-64h-64h-64v64v64v64h-64v64h64v64v64v64v64v64h64h64h64h64v-64v-64h-64z" />
    <glyph glyph-name="yen" unicode="&#xa5;" 
d="M128 0v64v64h-64h-64v64h64h64v64h-64h-64v64h64h64v64h-64v64h64h64h64v-64h-64v-64h64h64v-64h-64h-64v-64h64h64v-64h-64h-64v-64v-64h-64zM256 448v64v64v64h64v-64v-64v-64h-64zM64 448h-64v64v64v64h64v-64v-64v-64z" />
    <glyph glyph-name="copyright" unicode="&#xa9;" horiz-adv-x="704" 
d="M448 64h64v-64h-64h-64h-64h-64h-64h-64h-64v64h64h64h64h64h64h64zM512 64v64v64v64v64v64v64v64v64h64v-64v-64v-64v-64v-64v-64v-64v-64h-64zM64 64h-64v64v64v64v64v64v64v64v64h64v-64v-64v-64v-64v-64v-64v-64v-64zM384 192h64v-64h-64h-64h-64h-64h-64v64v64v64
v64v64v64h64h64h64h64h64v-64h-64h-64h-64h-64v-64v-64v-64v-64h64h64h64zM512 576h-64h-64h-64h-64h-64h-64h-64v64h64h64h64h64h64h64h64v-64z" />
    <glyph glyph-name="periodcentered" unicode="&#xb7;" horiz-adv-x="256" 
d="M64 256h-64v64v64h64h64v-64v-64h-64z" />
    <glyph glyph-name="Ccedilla" unicode="&#xc7;" 
d="M128 -128h-64v64h64v64h-64h-64v64v64v64v64v64v64v64v64v64v64v64h64h64h64h64h64v-64h-64h-64h-64h-64v-64v-64v-64v-64v-64v-64v-64v-64v-64h64h64h64h64v-64h-64h-64v-64v-64h-64z" />
    <glyph glyph-name="Odieresis" unicode="&#xd6;" 
d="M192 704v64h64v-64h-64zM64 704v64h64v-64h-64zM256 0h-64h-64h-64h-64v64v64v64v64v64v64v64v64v64v64h64h64h64h64h64v-64v-64v-64v-64v-64v-64v-64v-64v-64v-64h-64zM192 64h64v64v64v64v64v64v64v64v64h-64h-64h-64v-64v-64v-64v-64v-64v-64v-64v-64h64h64z" />
    <glyph glyph-name="Udieresis" unicode="&#xdc;" 
d="M192 704v64h64v-64h-64zM64 704v64h64v-64h-64zM256 0h-64h-64h-64h-64v64v64v64v64v64v64v64v64v64v64h64v-64v-64v-64v-64v-64v-64v-64v-64v-64h64h64h64v64v64v64v64v64v64v64v64v64h64v-64v-64v-64v-64v-64v-64v-64v-64v-64v-64h-64z" />
    <glyph glyph-name="ccedilla" unicode="&#xe7;" 
d="M128 -128h-64v64h64v64h-64h-64v64v64v64v64v64v64v64v64h64h64h64h64h64v-64h-64h-64h-64h-64v-64v-64v-64v-64v-64v-64h64h64h64h64v-64h-64h-64v-64v-64h-64z" />
    <glyph glyph-name="odieresis" unicode="&#xf6;" 
d="M192 576v64h64v-64h-64zM64 576v64h64v-64h-64zM256 0h-64h-64h-64h-64v64v64v64v64v64v64v64v64h64h64h64h64h64v-64v-64v-64v-64v-64v-64v-64v-64h-64zM192 64h64v64v64v64v64v64v64h-64h-64h-64v-64v-64v-64v-64v-64v-64h64h64z" />
    <glyph glyph-name="udieresis" unicode="&#xfc;" 
d="M192 576v64h64v-64h-64zM64 576v64h64v-64h-64zM256 0h-64h-64h-64h-64v64v64v64v64v64v64v64v64h64v-64v-64v-64v-64v-64v-64v-64h64h64h64v64v64v64v64v64v64v64h64v-64v-64v-64v-64v-64v-64v-64v-64h-64z" />
    <glyph glyph-name="Gbreve" unicode="&#x11e;" 
d="M256 0h-64h-64h-64h-64v64v64v64v64v64v64v64v64v64v64h64h64h64h64h64v-64h-64h-64h-64h-64v-64v-64v-64v-64v-64v-64v-64v-64h64h64h64v64v64v64v64h-64v64h64h64v-64v-64v-64v-64v-64v-64h-64zM192 768h64v-64h-64h-64h-64v64h64h64z" />
    <glyph glyph-name="gbreve" unicode="&#x11f;" 
d="M256 -128h-64h-64h-64h-64v64h64h64h64h64v64h-64h-64h-64h-64v64v64v64v64v64v64v64v64h64h64h64h64h64v-64v-64v-64v-64v-64v-64v-64v-64v-64v-64h-64zM192 64h64v64v64v64v64v64v64h-64h-64h-64v-64v-64v-64v-64v-64v-64h64h64zM192 640h64v-64h-64h-64h-64v64h64h64z
" />
    <glyph glyph-name="Idotaccent" unicode="&#x130;" horiz-adv-x="192" 
d="M0 0v64v64v64v64v64v64v64v64v64v64h64v-64v-64v-64v-64v-64v-64v-64v-64v-64v-64h-64zM0 704v64h64v-64h-64z" />
    <glyph glyph-name="dotlessi" unicode="&#x131;" horiz-adv-x="192" 
d="M0 0v64v64v64v64v64v64v64v64h64v-64v-64v-64v-64v-64v-64v-64v-64h-64z" />
    <glyph glyph-name="Scedilla" unicode="&#x15e;" 
d="M128 -128h-64v64h64v64h-64h-64v64h64h64h64h64v64v64v64v64h-64h-64h-64h-64v64v64v64v64v64v64h64h64h64h64h64v-64h-64h-64h-64h-64v-64v-64v-64v-64h64h64h64h64v-64v-64v-64v-64v-64v-64h-64h-64v-64v-64h-64z" />
    <glyph glyph-name="scedilla" unicode="&#x15f;" 
d="M128 -128h-64v64h64v64h-64h-64v64h64h64h64h64v64v64v64h-64h-64h-64h-64v64v64v64v64h64h64h64h64h64v-64h-64h-64h-64h-64v-64v-64h64h64h64h64v-64v-64v-64v-64v-64h-64h-64v-64v-64h-64z" />
    <glyph glyph-name="Euro" unicode="&#x20ac;" horiz-adv-x="512" 
d="M320 128h64v-64h-64h-64h-64h-64h-64v64v64v64h-64v64h64v64h-64v64h64v64v64v64h64h64h64h64h64v-64h-64h-64h-64h-64v-64v-64h64h64h64v-64h-64h-64h-64v-64h64h64h64v-64h-64h-64h-64v-64v-64h64h64h64z" />
    <glyph glyph-name="uni3000" unicode="&#x3000;" horiz-adv-x="1024" 
 />
  </font>
</defs>
</svg>
