<?xml version="1.0" encoding="utf-8"?>
<!-- Generator: Adobe Illustrator 24.0.0, SVG Export Plug-In . SVG Version: 6.00 Build 0)  -->
<svg version="1.1" id="Layer_1" xmlns="http://www.w3.org/2000/svg" xmlns:xlink="http://www.w3.org/1999/xlink" x="0px" y="0px"
	 viewBox="0 0 544.4 409" style="enable-background:new 0 0 544.4 409;" xml:space="preserve">
<style type="text/css">
	.st0{fill:#F5F5DC;}
</style>
<path class="st0" d="M92.2,312.2c3.2-3.2,7.5-5,12-5h416.5c7.6,0,11.4,9.2,6,14.5L444.4,404c-3.2,3.2-7.5,5-12,5H15.9
	c-7.6,0-11.4-9.2-6-14.5L92.2,312.2z"/>
<path class="st0" d="M92.2,5c3.2-3.2,7.5-5,12-5h416.5c7.6,0,11.4,9.2,6,14.5l-82.3,82.2c-3.2,3.2-7.5,5-12,5H15.9
	c-7.6,0-11.4-9.2-6-14.5L92.2,5z"/>
<path class="st0" d="M444.4,157.6c-3.2-3.2-7.5-5-12-5H15.9c-7.6,0-11.4,9.2-6,14.5l82.3,82.2c3.2,3.2,7.5,5,12,5h416.5
	c7.6,0,11.4-9.2,6-14.5L444.4,157.6z"/>
</svg>
